<svg width="29" height="29" viewBox="0 0 29 29" fill="none" xmlns="http://www.w3.org/2000/svg">
<path d="M25.7607 11.8632H24.8091V11.8142H14.1769V16.5396H20.8533C19.8793 19.2904 17.262 21.2651 14.1769 21.2651C10.2624 21.2651 7.08872 18.0913 7.08872 14.1769C7.08872 10.2624 10.2624 7.08872 14.1769 7.08872C15.9838 7.08872 17.6276 7.77037 18.8793 8.8838L22.2208 5.54232C20.1109 3.57595 17.2886 2.36328 14.1769 2.36328C7.65282 2.36328 2.36328 7.65282 2.36328 14.1769C2.36328 20.701 7.65282 25.9905 14.1769 25.9905C20.701 25.9905 25.9905 20.701 25.9905 14.1769C25.9905 13.3848 25.909 12.6116 25.7607 11.8632Z" fill="#FFC107"/>
<path d="M3.72656 8.67825L7.60792 11.5247C8.65815 8.92456 11.2016 7.08872 14.1781 7.08872C15.985 7.08872 17.6288 7.77037 18.8805 8.8838L22.2219 5.54232C20.112 3.57595 17.2898 2.36328 14.1781 2.36328C9.64045 2.36328 5.70534 4.92506 3.72656 8.67825Z" fill="#FF3D00"/>
<path d="M14.1772 25.9893C17.2287 25.9893 20.0013 24.8215 22.0977 22.9225L18.4413 19.8285C17.2156 20.7612 15.7175 21.2655 14.1772 21.2639C11.1045 21.2639 8.49547 19.3046 7.51257 16.5703L3.66016 19.5385C5.61531 23.3643 9.58586 25.9893 14.1772 25.9893Z" fill="#4CAF50"/>
<path d="M25.7596 11.8615H24.808V11.8125H14.1758V16.5379H20.8522C20.3863 17.8471 19.547 18.9911 18.4381 19.8286L18.4399 19.8274L22.0962 22.9214C21.8375 23.1565 25.9894 20.082 25.9894 14.1752C25.9894 13.3831 25.9079 12.6099 25.7596 11.8615Z" fill="#1976D2"/>
</svg>
