<svg width="26" height="26" viewBox="0 0 26 26" fill="none" xmlns="http://www.w3.org/2000/svg">
<path d="M7.58203 19.5013H18.4154V17.3346H7.58203V19.5013ZM18.4154 15.168H7.58203V13.0013H18.4154V15.168ZM7.58203 10.8346H11.9154V8.66797H7.58203V10.8346Z" fill="#1E1E1E"/>
<path fill-rule="evenodd" clip-rule="evenodd" d="M6.5 2.16797C5.63805 2.16797 4.8114 2.51038 4.2019 3.11987C3.59241 3.72936 3.25 4.55602 3.25 5.41797V20.5846C3.25 21.4466 3.59241 22.2732 4.2019 22.8827C4.8114 23.4922 5.63805 23.8346 6.5 23.8346H19.5C20.362 23.8346 21.1886 23.4922 21.7981 22.8827C22.4076 22.2732 22.75 21.4466 22.75 20.5846V9.7513C22.75 7.74008 21.951 5.81123 20.5289 4.38908C19.1067 2.96692 17.1779 2.16797 15.1667 2.16797H6.5ZM6.5 4.33464H14.0833V9.7513H20.5833V20.5846C20.5833 20.872 20.4692 21.1475 20.266 21.3507C20.0629 21.5538 19.7873 21.668 19.5 21.668H6.5C6.21268 21.668 5.93713 21.5538 5.73397 21.3507C5.5308 21.1475 5.41667 20.872 5.41667 20.5846V5.41797C5.41667 5.13065 5.5308 4.8551 5.73397 4.65194C5.93713 4.44877 6.21268 4.33464 6.5 4.33464ZM16.25 4.44297C17.1014 4.61749 17.8985 4.99395 18.5742 5.54066C19.2498 6.08737 19.7843 6.78835 20.1327 7.58463H16.25V4.44297Z" fill="#1E1E1E"/>
</svg>
