<svg width="26" height="26" viewBox="0 0 26 26" fill="none" xmlns="http://www.w3.org/2000/svg">
<path fill-rule="evenodd" clip-rule="evenodd" d="M17.3307 9.7474C17.3307 10.8967 16.8742 11.9989 16.0615 12.8115C15.2489 13.6242 14.1467 14.0807 12.9974 14.0807C11.8481 14.0807 10.7459 13.6242 9.93327 12.8115C9.12061 11.9989 8.66406 10.8967 8.66406 9.7474C8.66406 8.59812 9.12061 7.49592 9.93327 6.68327C10.7459 5.87061 11.8481 5.41406 12.9974 5.41406C14.1467 5.41406 15.2489 5.87061 16.0615 6.68327C16.8742 7.49592 17.3307 8.59812 17.3307 9.7474ZM15.1641 9.7474C15.1641 10.322 14.9358 10.8731 14.5295 11.2795C14.1231 11.6858 13.572 11.9141 12.9974 11.9141C12.4228 11.9141 11.8717 11.6858 11.4653 11.2795C11.059 10.8731 10.8307 10.322 10.8307 9.7474C10.8307 9.17276 11.059 8.62166 11.4653 8.21533C11.8717 7.809 12.4228 7.58073 12.9974 7.58073C13.572 7.58073 14.1231 7.809 14.5295 8.21533C14.9358 8.62166 15.1641 9.17276 15.1641 9.7474Z" fill="#1E1E1E"/>
<path fill-rule="evenodd" clip-rule="evenodd" d="M12.9987 1.08203C6.41745 1.08203 1.08203 6.41745 1.08203 12.9987C1.08203 19.5799 6.41745 24.9154 12.9987 24.9154C19.5799 24.9154 24.9154 19.5799 24.9154 12.9987C24.9154 6.41745 19.5799 1.08203 12.9987 1.08203ZM3.2487 12.9987C3.2487 15.2629 4.02111 17.3472 5.3157 19.0025C6.22509 17.8088 7.39803 16.8414 8.74297 16.1758C10.0879 15.5102 11.5685 15.1644 13.0691 15.1654C14.5504 15.1636 16.0126 15.5002 17.3441 16.1494C18.6756 16.7987 19.8412 17.7434 20.7521 18.9115C21.6908 17.6804 22.3228 16.2435 22.5958 14.7197C22.8689 13.1958 22.7752 11.6289 22.3224 10.1484C21.8696 8.668 21.0709 7.31667 19.9921 6.20624C18.9134 5.09581 17.5858 4.25821 16.1191 3.76275C14.6524 3.26729 13.0888 3.1282 11.5577 3.357C10.0266 3.5858 8.57197 4.17591 7.3142 5.07851C6.05642 5.9811 5.03166 7.17022 4.3247 8.54749C3.61773 9.92476 3.24889 11.4506 3.2487 12.9987ZM12.9987 22.7487C10.7604 22.7523 8.58969 21.9823 6.85403 20.569C7.55258 19.5687 8.48249 18.752 9.56461 18.1884C10.6467 17.6248 11.849 17.331 13.0691 17.332C14.274 17.331 15.4617 17.6174 16.5336 18.1676C17.6055 18.7178 18.5307 19.5158 19.2322 20.4954C17.4831 21.9546 15.2766 22.7523 12.9987 22.7487Z" fill="#1E1E1E"/>
</svg>
