<svg width="27" height="27" viewBox="0 0 27 27" fill="none" xmlns="http://www.w3.org/2000/svg">
<path d="M20.25 13.5C19.6313 13.5 19.125 14.0063 19.125 14.625V20.4975C19.125 21.1162 18.6187 21.6225 18 21.6225H6.75C6.13125 21.6225 5.625 21.1162 5.625 20.4975V9C5.625 8.38125 6.13125 7.875 6.75 7.875H12.375C12.9937 7.875 13.5 7.36875 13.5 6.75C13.5 6.13125 12.9937 5.625 12.375 5.625H5.625C4.3875 5.625 3.375 6.6375 3.375 7.875V21.375C3.375 22.6125 4.3875 23.625 5.625 23.625H19.125C20.3625 23.625 21.375 22.6125 21.375 21.375V14.625C21.375 14.0063 20.8687 13.5 20.25 13.5ZM23.6475 5.625H21.375V3.3525C21.375 2.745 20.88 2.25 20.2725 2.25H20.2388C19.62 2.25 19.125 2.745 19.125 3.3525V5.625H16.8637C16.2562 5.625 15.7612 6.12 15.75 6.7275V6.76125C15.75 7.38 16.245 7.875 16.8637 7.875H19.125V10.1363C19.125 10.7438 19.62 11.25 20.2388 11.2387H20.2725C20.88 11.2387 21.375 10.7438 21.375 10.1363V7.875H23.6475C24.255 7.875 24.75 7.38 24.75 6.7725V6.7275C24.75 6.12 24.255 5.625 23.6475 5.625Z" fill="#1E1E1E"/>
<path d="M15.75 10.125H9C8.38125 10.125 7.875 10.6312 7.875 11.25C7.875 11.8687 8.38125 12.375 9 12.375H15.75C16.3687 12.375 16.875 11.8687 16.875 11.25C16.875 10.6312 16.3687 10.125 15.75 10.125ZM15.75 13.5H9C8.38125 13.5 7.875 14.0062 7.875 14.625C7.875 15.2438 8.38125 15.75 9 15.75H15.75C16.3687 15.75 16.875 15.2438 16.875 14.625C16.875 14.0062 16.3687 13.5 15.75 13.5ZM15.75 16.875H9C8.38125 16.875 7.875 17.3812 7.875 18C7.875 18.6187 8.38125 19.125 9 19.125H15.75C16.3687 19.125 16.875 18.6187 16.875 18C16.875 17.3812 16.3687 16.875 15.75 16.875Z" fill="#1E1E1E"/>
</svg>
