<svg width="26" height="26" viewBox="0 0 26 26" fill="none" xmlns="http://www.w3.org/2000/svg">
<path d="M6.12863 22.1843C5.97309 22.3195 5.78219 22.4076 5.57834 22.4382C5.37449 22.4687 5.16616 22.4405 4.9778 22.3567C4.78944 22.273 4.62887 22.1373 4.51495 21.9655C4.40102 21.7938 4.33847 21.593 4.33464 21.3869V18.957C3.76 18.957 3.2089 18.7288 2.80257 18.3224C2.39624 17.9161 2.16797 17.365 2.16797 16.7904V9.20703C2.16797 8.6324 2.39624 8.0813 2.80257 7.67497C3.2089 7.26864 3.76 7.04036 4.33464 7.04036H16.2513C16.8259 7.04036 17.377 7.26864 17.7834 7.67497C18.1897 8.0813 18.418 8.6324 18.418 9.20703V16.7904C18.418 17.365 18.1897 17.9161 17.7834 18.3224C17.377 18.7288 16.8259 18.957 16.2513 18.957H10.8379L6.12863 22.1843ZM7.04297 18.8335C7.14166 18.8328 7.23855 18.8071 7.32464 18.7588L9.87588 16.9843C10.0575 16.858 10.2733 16.7903 10.4945 16.7904H15.168C15.4553 16.7904 15.7308 16.6762 15.934 16.4731C16.1372 16.2699 16.2513 15.9943 16.2513 15.707V10.2904C16.2513 10.003 16.1372 9.7275 15.934 9.52433C15.7308 9.32117 15.4553 9.20703 15.168 9.20703H5.41797C5.13065 9.20703 4.8551 9.32117 4.65194 9.52433C4.44877 9.7275 4.33464 10.003 4.33464 10.2904V15.707C4.33464 16.292 4.79939 16.7709 5.41797 16.7904C5.86214 16.8077 6.18389 16.8803 6.3323 17.0352C6.47097 17.1804 6.47855 17.4252 6.5013 17.891C6.50455 17.9593 6.50455 18.0828 6.5013 18.2919C6.5013 18.4355 6.55837 18.5733 6.65995 18.6749C6.76153 18.7765 6.89931 18.8335 7.04297 18.8335ZM19.5013 13.5577C19.4978 13.6913 19.4978 13.8249 19.5013 13.9585V13.5577ZM19.5013 13.5577C19.523 13.0919 19.5316 12.847 19.6703 12.7019C19.8187 12.5469 20.1405 12.4744 20.5846 12.457C21.2032 12.4375 21.668 11.9587 21.668 11.3737V5.95703C21.668 5.66971 21.5538 5.39416 21.3507 5.191C21.1475 4.98783 20.872 4.8737 20.5846 4.8737H10.8346C10.5473 4.8737 10.2718 4.98783 10.0686 5.191C9.86544 5.39416 9.7513 5.66971 9.7513 5.95703H7.58463V4.8737C7.58463 4.29906 7.81291 3.74796 8.21924 3.34163C8.62557 2.9353 9.17667 2.70703 9.7513 2.70703H21.668C22.2426 2.70703 22.7937 2.9353 23.2 3.34163C23.6064 3.74796 23.8346 4.29906 23.8346 4.8737V12.457C23.8346 13.0317 23.6064 13.5828 23.2 13.9891C22.7937 14.3954 22.2426 14.6237 21.668 14.6237V17.0536C21.6641 17.2597 21.6016 17.4604 21.4877 17.6322C21.3737 17.804 21.2132 17.9397 21.0248 18.0234C20.8364 18.1071 20.6281 18.1354 20.4243 18.1048C20.2204 18.0743 20.0295 17.9862 19.874 17.8509L19.5013 17.5953V13.5577Z" fill="#1E1E1E"/>
</svg>
