<svg width="26" height="26" viewBox="0 0 26 26" fill="none" xmlns="http://www.w3.org/2000/svg">
<path d="M20.9291 14.6263H16.7312C16.1748 14.6257 15.6408 14.8459 15.2464 15.2384C14.852 15.631 14.6294 16.1639 14.6274 16.7204V20.9183C14.6271 21.1947 14.6813 21.4684 14.787 21.7237C14.8926 21.9791 15.0475 22.2112 15.2429 22.4066C15.4384 22.602 15.6704 22.7569 15.9258 22.8626C16.1812 22.9682 16.4549 23.0224 16.7312 23.0221H20.9291C21.4854 23.0198 22.0181 22.7971 22.4104 22.4028C22.8027 22.0084 23.0227 21.4746 23.0221 20.9183V16.7204C23.0224 16.4454 22.9685 16.1732 22.8634 15.9191C22.7583 15.665 22.6042 15.4342 22.4097 15.2398C22.2153 15.0454 21.9845 14.8912 21.7304 14.7861C21.4764 14.681 21.2041 14.6271 20.9291 14.6274M9.27139 14.6263H5.07347C4.51728 14.6295 3.98494 14.8526 3.59277 15.247C3.20059 15.6414 2.98046 16.175 2.98047 16.7312V20.9291C2.98018 21.2041 3.03413 21.4764 3.13921 21.7304C3.24429 21.9845 3.39845 22.2153 3.59286 22.4097C3.78727 22.6042 4.01811 22.7583 4.27218 22.8634C4.52624 22.9685 4.79853 23.0224 5.07347 23.0221H9.27139C9.82766 23.0227 10.3615 22.8027 10.7558 22.4104C11.1502 22.0181 11.3729 21.4854 11.3752 20.9291V16.7312C11.3755 16.4549 11.3213 16.1812 11.2157 15.9258C11.11 15.6704 10.9551 15.4384 10.7597 15.2429C10.5642 15.0475 10.3322 14.8926 10.0768 14.787C9.82145 14.6813 9.54775 14.6271 9.27139 14.6274M9.27139 2.98047H5.07347C4.79853 2.98018 4.52624 3.03413 4.27218 3.13921C4.01811 3.24429 3.78727 3.39845 3.59286 3.59286C3.39845 3.78727 3.24429 4.01811 3.13921 4.27218C3.03413 4.52624 2.98018 4.79853 2.98047 5.07347V9.27139C2.97989 9.82766 3.19987 10.3615 3.5922 10.7558C3.98453 11.1502 4.5172 11.3729 5.07347 11.3752H9.27139C9.54775 11.3755 9.82145 11.3213 10.0768 11.2157C10.3322 11.11 10.5642 10.9551 10.7597 10.7597C10.9551 10.5642 11.11 10.3322 11.2157 10.0768C11.3213 9.82145 11.3755 9.54775 11.3752 9.27139V5.07347C11.3729 4.5172 11.1502 3.98453 10.7558 3.5922C10.3615 3.19987 9.82766 2.97989 9.27139 2.98047ZM20.9291 2.98047H16.7312C16.1749 2.97989 15.6411 3.19987 15.2468 3.5922C14.8524 3.98453 14.6297 4.5172 14.6274 5.07347V9.27139C14.6277 9.82927 14.8494 10.3642 15.2439 10.7587C15.6384 11.1532 16.1733 11.3749 16.7312 11.3752H20.9291C21.4854 11.3729 22.0181 11.1502 22.4104 10.7558C22.8027 10.3615 23.0227 9.82766 23.0221 9.27139V5.07347C23.0224 4.79853 22.9685 4.52624 22.8634 4.27218C22.7583 4.01811 22.6042 3.78727 22.4097 3.59286C22.2153 3.39845 21.9845 3.24429 21.7304 3.13921C21.4764 3.03413 21.2041 2.98018 20.9291 2.98047Z" stroke="#1E1E1E" stroke-width="1.625" stroke-linecap="round" stroke-linejoin="round"/>
</svg>
