<svg width="90" height="90" viewBox="0 0 90 90" fill="none" xmlns="http://www.w3.org/2000/svg">
<path d="M67.5 63.7517C72.4728 63.7517 77.2419 61.7763 80.7583 58.26C84.2746 54.7437 86.25 49.9745 86.25 45.0017C86.25 40.0289 84.2746 35.2598 80.7583 31.7435C77.2419 28.2272 72.4728 26.2517 67.5 26.2517C66.5054 19.7871 62.9835 13.9823 57.7091 10.1143C52.4346 6.24641 45.8397 4.63216 39.375 5.62672C32.9103 6.62128 27.1056 10.1432 23.2376 15.4176C19.3697 20.6921 17.7554 27.2871 18.75 33.7517C14.7718 33.7517 10.9564 35.3321 8.1434 38.1451C5.33035 40.9582 3.75 44.7735 3.75 48.7517C3.75 52.73 5.33035 56.5453 8.1434 59.3583C10.9564 62.1714 14.7718 63.7517 18.75 63.7517H22.5M33.75 52.5017L45 41.2517M45 41.2517L56.25 52.5017M45 41.2517V86.2517" stroke="#1E1E1E" stroke-opacity="0.6" stroke-width="5.83333" stroke-linecap="round" stroke-linejoin="round"/>
</svg>
