<svg width="22" height="22" viewBox="0 0 22 22" fill="none" xmlns="http://www.w3.org/2000/svg">
<path d="M1.83203 14.6641C1.83203 12.0717 1.83203 10.7746 2.63778 9.96981C3.44261 9.16406 4.7397 9.16406 7.33203 9.16406H14.6654C17.2577 9.16406 18.5548 9.16406 19.3596 9.96981C20.1654 10.7746 20.1654 12.0717 20.1654 14.6641C20.1654 17.2564 20.1654 18.5535 19.3596 19.3583C18.5548 20.1641 17.2577 20.1641 14.6654 20.1641H7.33203C4.7397 20.1641 3.44261 20.1641 2.63778 19.3583C1.83203 18.5535 1.83203 17.2564 1.83203 14.6641Z" stroke="#1E1E1E" stroke-opacity="0.5" stroke-width="1.5"/>
<path d="M5.5 9.16536V7.33203C5.5 5.87334 6.07946 4.47439 7.11091 3.44294C8.14236 2.41149 9.54131 1.83203 11 1.83203C12.4587 1.83203 13.8576 2.41149 14.8891 3.44294C15.9205 4.47439 16.5 5.87334 16.5 7.33203V9.16536" stroke="#1E1E1E" stroke-opacity="0.5" stroke-width="1.5" stroke-linecap="round"/>
<path d="M7.33203 14.6641H7.34028M10.9904 14.6641H10.9987M14.6571 14.6641H14.6654" stroke="#1E1E1E" stroke-opacity="0.5" stroke-width="2" stroke-linecap="round" stroke-linejoin="round"/>
</svg>
